# xmcd
#
# Track frame offsets: 
#        150
#        8969
#        18811
#        27921
#        36822
#        47902
#        56088
#        64075
#        72410
#        81326
#        92397
#        107503
#        119756
#        129366
#        139555
#        149019
#        158552
#
# Disc length: 2319 seconds
#
# Revision: 1
# Processed by: cddbd v1.5.2PL0 Copyright (c) Steve Scherf et al.
# Submitted via: ExactAudioCopy v1.0b1
#
DISCID=e6090d11
DTITLE=Ralph Stanley - Poor Rambler [CD3]
DYEAR=2002
DGENRE=Bluegrass
TTITLE0=Hills Of Home
TTITLE1=Darling Brown Eyes
TTITLE2=My Long Skinny Lanky Sarah Jane
TTITLE3=Coosy
TTITLE4=Midnight Storm
TTITLE5=Let's Go To The Fair
TTITLE6=Dark Hollow
TTITLE7=Dug-Gunn Shame
TTITLE8=The Kitten And The Cat
TTITLE9=California
TTITLE10=I Only Exist
TTITLE11=Medicine Springs
TTITLE12=Footprints In The Snow
TTITLE13=Sunny Side Of The Mountain
TTITLE14=God Gave You To Me
TTITLE15=Stone Walls And Steel Bars
TTITLE16=I Only Exist
EXTD=william hale
EXTT0=
EXTT1=
EXTT2=
EXTT3=
EXTT4=
EXTT5=
EXTT6=
EXTT7=
EXTT8=
EXTT9=
EXTT10=
EXTT11=
EXTT12=
EXTT13=
EXTT14=
EXTT15=
EXTT16=
PLAYORDER=
